Coordinates
version=1
nRows=8
nColumns=33
inDegrees=yes

Units are S.I. units (second, meters, Newtons, ...)
Angles are in degrees.

endheader
time	ground_thorax_rot_x	ground_thorax_rot_y	ground_thorax_rot_z	ground_thorax_tx	ground_thorax_ty	ground_thorax_tz	clav_prot_r	clav_elev_r	scapula_abduction_r	scapula_elevation_r	scapula_upward_rot_r	scapula_winging_r	shoulder_elv_r	plane_of_elev_r	axial_rot_r	elbow_flexion_r	pro_sup_r	wrist_flex_r	wrist_dev_r	clav_prot_l	clav_elev_l	scapula_abduction_l	scapula_elevation_l	scapula_upward_rot_l	scapula_winging_l	shoulder_elv_l	plane_of_elev_l	axial_rot_l	elbow_flexion_l	pro_sup_l	wrist_flex_l	wrist_dev_l
      3.91000000	    -38.62929179	     -4.06361838	      1.70392048	    -45.06814959	    799.92092215	      7.82030732	      5.60016242	    -45.00000000	     45.00000000	    -45.00000000	     -9.99007658	  -5490.63153931	   -116.37188576	    150.68109833	   -107.95170535	   1809.38395180	   -348.26023155	     17.03491833	     11.00420183	     16.35184631	     40.61682053	    -45.00000000	    -40.01386038	    -27.90962420	   3679.19365996	  -3701.19792895	    135.10032277	   -176.63912364	    366.07175834	     23.06529949	     13.49339221	    -19.30423114
      3.92000000	    -38.52003412	     -4.30832741	      1.74422219	    -43.16012397	    798.33075691	      8.24710941	      5.62976963	    -45.00000000	     45.00000000	    -45.00000000	    -10.45418847	  -5490.22851067	   -116.34820621	    150.84234878	   -108.35038061	   1809.16257006	   -348.67793341	     16.73176641	     11.23826796	     16.39909651	     40.60216490	    -45.00000000	    -39.75994623	    -27.37291335	   3679.19876068	  -3701.64230775	    135.55781646	   -178.71865837	    365.91125735	     21.98071779	     13.12862548	    -19.10038327
      3.93000000	    -38.35212092	     -4.68979366	      1.97235523	    -41.63477254	    797.01944973	      8.61603227	      5.92718407	    -45.00000000	     45.00000000	    -45.00000000	    -10.93176902	  -5490.27941091	   -116.46136663	    150.76175265	   -107.87266897	   1809.08427961	   -349.15013262	     16.56211664	     11.16486629	     15.96429426	     40.26609013	    -45.00000000	    -39.49027504	    -27.74603055	   3679.33944870	  -3701.63679072	    135.36107362	   -179.19296256	    365.69578759	     21.49404764	     13.09881439	    -18.93983176
      3.94000000	    -38.19301969	     -4.87246236	      2.00813475	    -40.48285991	    795.95516237	      8.90944802	      5.96812539	    -45.00000000	     45.00000000	    -45.00000000	    -11.09081623	  -5490.24370315	   -116.57975718	    150.82647007	   -107.42739484	   1808.79054152	   -349.65814888	     16.33504845	     11.14415846	     15.72570100	     40.10219559	    -45.00000000	    -39.18360874	    -27.58279045	   3679.25953928	  -3701.62394193	    135.57091895	   -179.48523245	    365.60823052	     21.19488250	     13.05739873	    -18.86838895
      3.95000000	    -38.08651992	     -4.83933023	      1.71937011	    -39.70301684	    795.10546088	      9.11208929	      5.80234658	    -45.00000000	     45.00000000	    -45.00000000	    -10.84349974	  -5490.12498839	   -116.58748170	    150.95897411	   -107.02258050	   1808.68651889	   -350.19350101	     16.21824601	     11.25230384	     15.77569420	     39.96416194	    -45.00000000	    -39.09062100	    -27.15454469	   3679.15497442	  -3701.76539605	    135.71918181	   -179.69111171	    365.49321369	     20.99368132	     12.98935837	    -18.84828316
      3.96000000	    -37.98291681	     -4.86492078	      1.48842427	    -39.29483247	    794.43778618	      9.21617465	      5.66197328	    -45.00000000	     45.00000000	    -45.00000000	    -10.69721577	  -5489.99897042	   -116.60499997	    151.10568480	   -106.60779274	   1808.56481627	   -350.70759443	     16.15121676	     11.39762294	     15.74125367	     39.98553026	    -45.00000000	    -38.93411012	    -26.74628254	   3679.17056001	  -3701.86555174	    135.86199504	   -179.99999979	    365.34441114	     20.81091764	     12.83739547	    -18.82415963
      3.97000000	    -37.87210207	     -5.02944970	      1.40622432	    -39.26724198	    793.93000603	      9.22552147	      5.61990177	    -45.00000000	     45.00000000	    -45.00000000	    -10.79374660	  -5489.96362907	   -116.50357244	    151.18242250	   -106.18631774	   1808.62256640	   -351.06412857	     16.18622308	     11.58002848	     15.66534160	     39.87190817	    -45.00000000	    -38.71400175	    -26.47329267	   3679.33228926	  -3701.93715247	    135.98039493	   -179.99999979	    365.28558036	     20.62047729	     12.55647841	    -18.85936086
      3.98000000	    -37.88254975	     -4.90942902	      1.09575213	    -39.62925129	    793.55387136	      9.15444608	      5.62328743	    -45.00000000	     45.00000000	    -45.00000000	    -10.65866382	  -5490.07800320	   -116.75950970	    151.22343538	   -105.97402907	   1808.40594041	   -351.35367961	     16.14963639	     11.50096753	     15.58940860	     40.10379944	    -45.00000000	    -38.83822963	    -26.49600304	   3679.26730715	  -3701.82832985	    135.84867712	   -179.96355275	    365.20878858	     20.53248408	     12.68360779	    -18.88472039
